<?xml version="1.0" encoding="UTF-8"?>
<svg id="Capa_2" data-name="Capa 2" xmlns="http://www.w3.org/2000/svg" viewBox="0 0 215.96 37.16">
  <defs>
    <style>
      .cls-1 {
        fill: #fff;
        stroke-width: 0px;
      }
    </style>
  </defs>
  <g id="Capa_1-2" data-name="Capa 1">
    <g>
      <path class="cls-1" d="M51.55,18.62L39.28,1.06h12.62l6.28,9.59,6.13-9.59h11.99l-12.13,17.14c3.95,5.64,8.53,12.27,12.55,17.91h-12.55l-6.49-9.87c-1.9,2.82-4.51,6.98-6.42,9.87h-11.78l12.06-17.49Z"/>
      <path class="cls-1" d="M144.49,26.02c-1.69,6.06-7.26,11.14-16.15,11.14-9.66,0-18.26-6.91-18.26-18.69S118.47,0,127.57,0c10.86,0,17.56,6.7,17.56,17.98,0,1.48-.14,3.1-.21,3.31h-24.4c.21,3.95,3.81,6.77,7.97,6.77,3.88,0,6.06-1.83,7.05-4.58l8.96,2.54ZM134.76,14.39c-.14-2.68-1.97-5.92-7.05-5.92-4.51,0-6.77,3.31-6.98,5.92h14.03Z"/>
      <path class="cls-1" d="M154.72,24.54c.14,2.4,1.83,4.72,5.5,4.72,2.75,0,4.09-1.48,4.09-3.03,0-1.27-.85-2.33-3.46-2.89l-4.02-.92c-7.47-1.62-10.44-5.85-10.44-10.79,0-6.42,5.64-11.64,13.47-11.64,10.15,0,13.68,6.35,14.03,10.44l-8.88,1.62c-.28-2.33-1.76-4.3-5.01-4.3-2.04,0-3.81,1.2-3.81,3.03,0,1.48,1.2,2.33,2.75,2.61l4.65.92c7.26,1.48,10.79,5.85,10.79,11,0,5.99-4.58,11.85-13.96,11.85-11,0-14.53-7.12-14.81-11l9.1-1.62Z"/>
      <path class="cls-1" d="M184.05,24.54c.14,2.4,1.83,4.72,5.5,4.72,2.75,0,4.09-1.48,4.09-3.03,0-1.27-.85-2.33-3.46-2.89l-4.02-.92c-7.47-1.62-10.44-5.85-10.44-10.79,0-6.42,5.64-11.64,13.47-11.64,10.15,0,13.68,6.35,14.03,10.44l-8.88,1.62c-.28-2.33-1.76-4.3-5.01-4.3-2.04,0-3.81,1.2-3.81,3.03,0,1.48,1.2,2.33,2.75,2.61l4.65.92c7.26,1.48,10.79,5.85,10.79,11,0,5.99-4.58,11.85-13.96,11.85-11,0-14.53-7.12-14.81-11l9.1-1.62Z"/>
      <path class="cls-1" d="M210.97,2c2.75,0,4.99,2.25,4.99,4.99s-2.25,4.98-4.99,4.98-4.98-2.23-4.98-4.98,2.23-4.99,4.98-4.99ZM210.97,10.87c2.14,0,3.8-1.71,3.8-3.88s-1.66-3.89-3.8-3.89-3.78,1.72-3.78,3.89,1.64,3.88,3.78,3.88ZM210.92,7.84h-.4v1.8h-1.4v-5.36h2.25c1.04,0,1.84.78,1.84,1.76,0,.69-.39,1.27-.96,1.55l1.02,2.05h-1.53l-.82-1.8ZM211.09,6.71c.43,0,.7-.26.7-.65s-.27-.65-.7-.65h-.58v1.29h.58Z"/>
      <path class="cls-1" d="M37.16,1.06h-10.37v4.02c-.71-1.62-3.46-5.08-9.73-5.08C6.7,0,0,8.04,0,18.48s7.12,18.62,17.42,18.62c4.37,0,7.9-2.12,9.45-5.5v.35c0,1.48.14,3.38.28,4.16h10.3c-.07-.78-.28-3.03-.28-6.28V1.06ZM18.72,27.52c-4.94,0-8.94-4-8.94-8.94s4-8.94,8.94-8.94,8.94,4,8.94,8.94-4,8.94-8.94,8.94Z"/>
      <path class="cls-1" d="M101.21,22.29c-1.41,3.08-4.52,5.23-8.13,5.23-4.94,0-8.94-4-8.94-8.94s4-8.94,8.94-8.94c3.58,0,6.66,2.1,8.09,5.14l8.55-2.58c-1.55-6.28-7.19-12.2-16.85-12.2-10.3,0-18.48,7.69-18.48,18.62s8.39,18.55,18.83,18.55c9.38,0,15.16-6.06,16.71-12.2l-8.72-2.67Z"/>
    </g>
  </g>
</svg>